<?xml version="1.0" standalone="no"?>
<!DOCTYPE svg PUBLIC "-//W3C//DTD SVG 20010904//EN" "http://www.w3.org/TR/2001/REC-SVG-20010904/DTD/svg10.dtd">
<!-- Created using Krita: https://krita.org -->
<svg xmlns="http://www.w3.org/2000/svg" 
    xmlns:xlink="http://www.w3.org/1999/xlink"
    xmlns:krita="http://krita.org/namespaces/svg/krita"
    xmlns:sodipodi="http://sodipodi.sourceforge.net/DTD/sodipodi-0.dtd"
    width="360pt"
    height="350pt"
    viewBox="0 0 360 350"
    >
<defs/>
<path id="shape0" transform="matrix(0.835206226335014 0 0 0.835206226335014 182.707836577827 55.1287798638293)" fill="#0000ff" fill-opacity="0.741176470588235" fill-rule="evenodd" stroke="#0000ff" stroke-width="1.44" stroke-linecap="square" stroke-linejoin="bevel" d="M79.3953 92.8724C69.9179 75.139 57.831 55.2311 46.45 40.9699C30.5778 21.0364 20.8731 13.8068 0 0C92.7567 0.0157394 145.705 15.2736 158.844 45.7736" sodipodi:nodetypes="cccc"/><path id="shape1" transform="matrix(0.835206226335014 0 0 0.835206226335014 38.9879355129844 94.60434168483)" fill="#00ff00" fill-opacity="0.686274509803922" fill-rule="evenodd" stroke="#00ff00" stroke-width="1.44" stroke-linecap="square" stroke-linejoin="bevel" d="M94.1083 48.1479C52.1859 81.3876 38.9956 119.818 54.5372 163.438C0.425932 110.72 -13.4188 56.2412 13.0029 0" sodipodi:nodetypes="ccc"/><path id="shape2" transform="matrix(0.835206226335014 0 0 0.835206226335014 182.707836577827 213.077143458371)" fill="#ff0000" fill-opacity="0.831372549019608" fill-rule="evenodd" stroke="#ff0000" stroke-width="1.44" stroke-linecap="square" stroke-linejoin="bevel" d="M0 41.4454C69.5934 45.863 112.562 32.0479 128.905 0C101.311 82.7853 60.8814 127.361 7.61513 133.727" sodipodi:nodetypes="ccc"/><circle id="shape0" transform="matrix(0.835206159958791 0 0 0.835206159958791 144.221524492461 247.793953383257)" r="46.08" cx="46.08" cy="46.08" fill="#ff0000" fill-rule="evenodd" stroke="#ff0000" stroke-width="3.6" stroke-linecap="square" stroke-linejoin="bevel"/><circle id="shape01" transform="matrix(0.835206154469135 0 0 0.835206154469135 243.791492399787 74.351712988719)" r="46.08" cx="46.08" cy="46.08" fill="#0000ff" fill-rule="evenodd" stroke="#0000ff" stroke-width="3.6" stroke-linecap="square" stroke-linejoin="bevel"/><circle id="shape011" transform="matrix(0.835206149488973 0 0 0.835206149488972 45.6939719964619 74.6991817087181)" r="46.08" cx="46.08" cy="46.08" fill="#00ff00" fill-rule="evenodd" stroke="#00ff00" stroke-width="3.6" stroke-linecap="square" stroke-linejoin="bevel"/><text id="shape3" krita:useRichText="true" krita:textVersion="2" transform="translate(77.0647698744771, 118.800167364017)" fill="#f2f2f2" stroke-opacity="0" stroke="#000000" stroke-width="0" stroke-linecap="square" stroke-linejoin="bevel" font-family="Calibri" font-size="48" font-size-adjust="0.208333" font-stretch="normal" font-weight="700" letter-spacing="0" word-spacing="0"><tspan x="0">1</tspan></text><path id="shape4" transform="matrix(-0.999859498200244 0.0167625731545613 -0.0167625731545613 -0.999859498200244 299.642559112984 129.374885198888)" fill="#00e1e1" fill-opacity="0.854901960784314" fill-rule="evenodd" stroke="#1e74fd" stroke-width="1.44" stroke-linecap="square" stroke-linejoin="bevel" d="M2.70718 22.3816C0.762942 19.766 -0.134063 18.0212 0.0161623 17.1472C0.2415 15.8363 10.3554 3.42596 11.3217 2.65293C12.288 1.8799 11.4166 2.31193 13.3509 0.913611C15.2852 -0.484713 18.889 -0.110039 20.0183 0.913607C21.1477 1.93725 19.5958 1.11879 21.4678 2.07316C23.3397 3.02752 29.4051 12.8224 31.7104 15.9877C34.0157 19.153 26.9949 24.4225 25.8776 22.6228C24.7604 20.8231 21.7576 17.3405 21.7576 18.4034C21.7576 19.4663 22.1152 26.9144 22.0475 29.0475C21.9798 31.1807 21.1929 32.1984 19.3419 31.9314C17.491 31.6645 13.2543 32.4146 11.9981 31.9314C10.742 31.4483 11.3272 17.3127 10.5427 18.1848C9.75814 19.057 7.30479 22.3182 6.63521 23.4658C5.47566 23.5624 3.86672 23.4445 2.70718 22.3816Z" sodipodi:nodetypes="czzzzzzzzzzzzcc"/><ellipse id="shape5" transform="translate(44.639999466086, 73.9800004219974)" rx="39.3300006186215" ry="38.8800002217797" cx="39.3300006186215" cy="38.8800002217797" fill="none" stroke="#f2f2f2" stroke-width="2.88" stroke-linecap="square" stroke-linejoin="bevel"/><path id="shape6" transform="matrix(0.72 0 0 0.72 167.04 269.881607979268)" fill="#ff6a00" stroke-opacity="0" stroke="#000000" stroke-width="0" stroke-linecap="square" stroke-linejoin="bevel" d="M8.57162 0C3.82269 0 0.000749988 3.82194 0.000749988 8.57087C0.000749988 13.3198 3.82269 17.1417 8.57162 17.1417L18.7385 17.1417L2.51771 33.3565C-0.839237 36.7164 -0.839237 42.1223 2.51771 45.4823C5.87766 48.8392 11.2836 48.8392 14.6435 45.4823L30.8583 29.2615L30.8583 39.4284C30.8583 44.1773 34.6802 47.9993 39.4291 47.9993C44.1781 47.9993 48 44.1773 48 39.4284L48 8.57087C48 3.82194 44.1781 0 39.4291 0Z" sodipodi:nodetypes="cccccccccccccc"/><path id="shape7" transform="translate(125.644278291355, 167.117619540582)" fill="none" stroke="#deff00" stroke-width="3.6" stroke-linecap="square" stroke-linejoin="bevel" d="M0 23.0769L37.4201 22.5678C38.5283 14.7174 44.6919 6.47961 48.0919 0C46.287 20.3993 46.5053 33.6118 52.0157 46.9024C53.6781 35.7514 52.9262 23.6215 61.838 10.3096C60.1938 16.6918 62.2287 18.8566 64.6578 23.8406L100.041 23.8406" sodipodi:nodetypes="ccccccc"/>
</svg>
